<svg width="150" height="95" viewBox="0 0 150 95" fill="none" xmlns="http://www.w3.org/2000/svg">
<g clip-path="url(#clip0_474_13070)">
<path d="M142 0H8C3.58172 0 0 3.58172 0 8V87C0 91.4183 3.58172 95 8 95H142C146.418 95 150 91.4183 150 87V8C150 3.58172 146.418 0 142 0Z" fill="white"/>
<path d="M25.5028 54.9405L24.5763 53.0649H24.5364V59.5648H22.9316V50.5479H24.7979L27.4976 55.1721L28.4241 57.0477H28.464V50.5479H30.0688V59.5648H28.2025L25.5028 54.9405Z" fill="#105C37"/>
<path d="M41.0711 59.5648L40.3529 57.266H37.1656L36.4608 59.5648H34.7363L37.7463 50.5479H39.8564L42.8398 59.5648H41.0799H41.0711ZM38.7837 52.0982H38.7172L37.5734 55.8047H39.9407L38.7837 52.0982Z" fill="#105C37"/>
<path d="M53.1961 59.5648L52.4779 57.266H49.2906L48.5858 59.5648H46.8613L49.8713 50.5479H51.9814L54.9648 59.5648H53.2049H53.1961ZM50.9086 52.0982H50.8422L49.6984 55.8047H52.0657L50.9086 52.0982Z" fill="#105C37"/>
<path d="M66.3957 53.0917H66.3425L65.6466 54.5262L63.8069 57.9387L61.9672 54.5262L61.2712 53.0917H61.218V59.5648H59.6133V50.5479H61.5283L63.8291 54.9538H63.8823L66.1564 50.5479H67.996V59.5648H66.3913V53.0917H66.3957Z" fill="#105C37"/>
<path d="M79.0086 59.5648L78.2904 57.266H75.1031L74.3983 59.5648H72.6738L75.6838 50.5479H77.7939L80.7773 59.5648H79.0174H79.0086ZM76.7212 52.0982H76.6547L75.5109 55.8047H77.8782L76.7212 52.0982Z" fill="#105C37"/>
<path d="M101.987 34.4383V20.0977L95.2139 25.0917C92.8422 26.8425 91.4414 29.618 91.4414 32.5761V57.5508L98.215 52.5567C100.587 50.8059 101.987 48.0305 101.987 45.0723V38.9334L97.5545 38.8977L101.987 34.4427V34.4383Z" fill="#008E4B"/>
<path d="M122.704 29.8358C120.332 31.5867 118.932 34.3621 118.932 37.3202V38.6434L123.218 42.9513H118.932V57.5459L125.705 52.5518C128.077 50.8055 129.478 48.0256 129.478 45.0675V24.8418L122.704 29.8358Z" fill="#1B4831"/>
<path d="M115.612 38.5942V11L108.839 15.994C106.467 17.7404 105.066 20.5203 105.066 23.4784V34.4377L109.499 38.8927H105.066V63.1011L111.84 58.1071C114.212 56.3607 115.612 53.5808 115.612 50.6227V42.9512H111.277L115.612 38.5942Z" fill="#60B87C"/>
<path d="M77.6955 26.0799H78.3827C79.0299 26.0799 79.5574 25.8838 79.9785 25.4918C80.3952 25.0998 80.6036 24.4716 80.6036 23.6073C80.6036 22.7431 80.3952 22.0748 79.9785 21.6828C79.5618 21.2907 79.0299 21.0947 78.3827 21.0947H77.6955C77.0483 21.0947 76.5164 21.2907 76.0997 21.6828C75.683 22.0748 75.4746 22.7163 75.4746 23.6073C75.4746 24.4983 75.683 25.0998 76.0997 25.4918C76.5164 25.8838 77.0483 26.0799 77.6955 26.0799Z" fill="#105C37"/>
<path d="M81.4908 36.1626C81.411 35.2849 81.3001 34.385 81.1671 33.4628L80.6042 29.8142L76.6499 30.4646L77.2971 34.1133C77.4833 35.2226 77.6119 36.1091 77.6828 36.7684C77.7493 37.4322 77.7848 37.9802 77.7848 38.4123C77.7848 39.4414 77.4257 40.1498 76.7164 40.5418C76.0027 40.9339 74.7038 41.1299 72.8198 41.1299H70.723C69.8364 41.1299 69.167 40.9606 68.7237 40.622C68.2804 40.2834 67.8682 39.6018 67.4914 38.5727L64.3838 30.2151H59.7026L57.2822 31.6764C53.4875 33.9217 51.5902 36.5991 51.5902 39.7087C51.5902 39.927 51.5947 40.1275 51.6124 40.3191C51.6257 40.5106 51.6479 40.6977 51.6744 40.8849C51.2179 40.9918 50.7302 41.0631 50.2204 41.0898C49.7106 41.1165 49.0634 41.1299 48.2832 41.1299H29.6292C28.419 41.1299 27.5634 40.9249 27.0669 40.5195C26.5704 40.1141 26.3222 39.3301 26.3222 38.1673V15.9814H22V38.7375C22 41.4952 22.6251 43.4687 23.8752 44.6582C25.1253 45.8477 27.0846 46.4447 29.7489 46.4447H29.7888H47.1794C49.5732 46.4447 51.1203 45.1616 51.8207 42.5911H52.1443C52.6275 43.7539 53.4565 44.6894 54.6268 45.3888C55.7971 46.0927 57.3265 46.4447 59.2061 46.4447H64.2508V43.2816L64.4947 43.2415C65.1685 44.3776 65.9664 45.1973 66.8973 45.6962C67.8238 46.1952 69.0961 46.4447 70.7141 46.4447H72.811C75.8786 46.4447 78.1128 45.7943 79.5092 44.4979C80.91 43.2014 81.606 41.17 81.606 38.4123C81.606 37.7886 81.5661 37.0402 81.4863 36.1626H81.4908ZM58.0402 41.1299C57.096 41.1299 56.3513 40.9829 55.8016 40.6844C55.2474 40.3859 54.9726 39.8869 54.9726 39.183C54.9726 38.5905 55.2607 38.0337 55.8415 37.5213C56.4177 37.009 57.2467 36.519 58.3239 36.0601L61.1478 34.8038L63.5283 41.1343H58.0402V41.1299Z" fill="#105C37"/>
<path d="M59.7 16C58.972 16 58.448 15.852 58.128 15.556C57.816 15.252 57.66 14.784 57.66 14.152V14.008H57.6C57.48 14.456 57.292 14.78 57.036 14.98C56.78 15.172 56.444 15.268 56.028 15.268C55.476 15.268 55.052 15.12 54.756 14.824C54.46 14.528 54.312 14.112 54.312 13.576C54.312 13.304 54.352 13.056 54.432 12.832C54.512 12.6 54.636 12.384 54.804 12.184C54.972 11.984 55.18 11.796 55.428 11.62C55.684 11.436 55.984 11.252 56.328 11.068L57.6 10.396V9.76H58.692V13.888C58.692 14.176 58.764 14.376 58.908 14.488C59.052 14.592 59.28 14.644 59.592 14.644H59.988V15.712L59.7 16ZM56.292 13.912C56.772 13.912 57.108 13.852 57.3 13.732C57.5 13.612 57.6 13.4 57.6 13.096V11.476L56.52 12.028C56.088 12.252 55.776 12.452 55.584 12.628C55.392 12.796 55.296 13.004 55.296 13.252C55.296 13.484 55.368 13.652 55.512 13.756C55.664 13.86 55.924 13.912 56.292 13.912ZM58.08 8.788C57.896 8.788 57.748 8.732 57.636 8.62C57.532 8.508 57.48 8.336 57.48 8.104C57.48 7.864 57.532 7.692 57.636 7.588C57.748 7.476 57.896 7.42 58.08 7.42H58.26C58.444 7.42 58.592 7.476 58.704 7.588C58.816 7.692 58.872 7.864 58.872 8.104C58.872 8.336 58.816 8.508 58.704 8.62C58.592 8.732 58.444 8.788 58.26 8.788H58.08ZM56.388 8.788C56.204 8.788 56.056 8.732 55.944 8.62C55.84 8.508 55.788 8.336 55.788 8.104C55.788 7.864 55.84 7.692 55.944 7.588C56.056 7.476 56.204 7.42 56.388 7.42H56.568C56.752 7.42 56.9 7.476 57.012 7.588C57.124 7.692 57.18 7.864 57.18 8.104C57.18 8.336 57.124 8.508 57.012 8.62C56.9 8.732 56.752 8.788 56.568 8.788H56.388ZM59.7003 14.932L59.9883 14.644H60.2403C60.7843 14.644 61.1683 14.584 61.3923 14.464C61.6163 14.336 61.7283 14.108 61.7283 13.78C61.7283 13.644 61.7163 13.472 61.6923 13.264C61.6763 13.056 61.6403 12.78 61.5843 12.436L61.3923 11.392L62.4363 11.224L62.5923 12.268C62.6883 12.908 62.7363 13.412 62.7363 13.78C62.7363 14.532 62.5323 15.092 62.1243 15.46C61.7163 15.82 61.0883 16 60.2403 16H59.7003V14.932ZM61.6323 18.484C61.4483 18.484 61.3003 18.428 61.1883 18.316C61.0843 18.204 61.0323 18.032 61.0323 17.8C61.0323 17.56 61.0843 17.384 61.1883 17.272C61.3003 17.168 61.4483 17.116 61.6323 17.116H61.8123C61.9963 17.116 62.1443 17.168 62.2563 17.272C62.3683 17.384 62.4243 17.56 62.4243 17.8C62.4243 18.032 62.3683 18.204 62.2563 18.316C62.1443 18.428 61.9963 18.484 61.8123 18.484H61.6323ZM64.0272 7.12H65.1432V16H64.0272V7.12ZM66.3606 17.524H67.0566C67.8966 17.524 68.5526 17.388 69.0246 17.116C69.4966 16.852 69.8086 16.48 69.9606 16H68.5206C67.8726 16 67.3686 15.824 67.0086 15.472C66.6566 15.12 66.4806 14.62 66.4806 13.972C66.4806 13.588 66.5366 13.228 66.6486 12.892C66.7686 12.556 66.9286 12.268 67.1286 12.028C67.3366 11.78 67.5806 11.584 67.8606 11.44C68.1406 11.296 68.4486 11.224 68.7846 11.224C69.4886 11.224 70.0366 11.524 70.4286 12.124C70.8286 12.724 71.0366 13.564 71.0526 14.644H71.6166V15.712L71.3286 16H70.9206C70.7206 16.92 70.3006 17.628 69.6606 18.124C69.0286 18.628 68.1766 18.88 67.1046 18.88H66.3606V17.524ZM67.4766 13.804C67.4766 14.1 67.5686 14.316 67.7526 14.452C67.9366 14.58 68.2086 14.644 68.5686 14.644H70.0566V14.416C70.0566 13.864 69.9286 13.424 69.6726 13.096C69.4166 12.76 69.0846 12.592 68.6766 12.592C68.3086 12.592 68.0166 12.704 67.8006 12.928C67.5846 13.152 67.4766 13.444 67.4766 13.804ZM71.3253 14.932L71.6133 14.644H71.8653C72.4093 14.644 72.7933 14.584 73.0173 14.464C73.2413 14.336 73.3533 14.108 73.3533 13.78C73.3533 13.644 73.3413 13.472 73.3173 13.264C73.3013 13.056 73.2653 12.78 73.2093 12.436L73.0173 11.392L74.0613 11.224L74.2173 12.268C74.3133 12.908 74.3613 13.412 74.3613 13.78C74.3613 14.532 74.1573 15.092 73.7493 15.46C73.3413 15.82 72.7133 16 71.8653 16H71.3253V14.932ZM73.2573 18.484C73.0733 18.484 72.9253 18.428 72.8133 18.316C72.7093 18.204 72.6573 18.032 72.6573 17.8C72.6573 17.56 72.7093 17.384 72.8133 17.272C72.9253 17.168 73.0733 17.116 73.2573 17.116H73.4373C73.6213 17.116 73.7693 17.168 73.8813 17.272C73.9933 17.384 74.0493 17.56 74.0493 17.8C74.0493 18.032 73.9933 18.204 73.8813 18.316C73.7693 18.428 73.6213 18.484 73.4373 18.484H73.2573Z" fill="#989E9F"/>
<path d="M124 66H26C22.6863 66 20 68.6863 20 72V76C20 79.3137 22.6863 82 26 82H124C127.314 82 130 79.3137 130 76V72C130 68.6863 127.314 66 124 66Z" fill="#60B87C"/>
<path d="M34.1199 77C33.3919 77 32.8679 76.852 32.5479 76.556C32.2359 76.252 32.0799 75.784 32.0799 75.152V75.008H32.0199C31.8999 75.456 31.7119 75.78 31.4559 75.98C31.1999 76.172 30.8639 76.268 30.4479 76.268C29.8959 76.268 29.4719 76.12 29.1759 75.824C28.8799 75.528 28.7319 75.112 28.7319 74.576C28.7319 74.304 28.7719 74.056 28.8519 73.832C28.9319 73.6 29.0559 73.384 29.2239 73.184C29.3919 72.984 29.5999 72.796 29.8479 72.62C30.1039 72.436 30.4039 72.252 30.7479 72.068L32.0199 71.396V70.76H33.1119V74.888C33.1119 75.176 33.1839 75.376 33.3279 75.488C33.4719 75.592 33.6999 75.644 34.0119 75.644H34.4079V76.712L34.1199 77ZM30.7119 74.912C31.1919 74.912 31.5279 74.852 31.7199 74.732C31.9199 74.612 32.0199 74.4 32.0199 74.096V72.476L30.9399 73.028C30.5079 73.252 30.1959 73.452 30.0039 73.628C29.8119 73.796 29.7159 74.004 29.7159 74.252C29.7159 74.484 29.7879 74.652 29.9319 74.756C30.0839 74.86 30.3439 74.912 30.7119 74.912ZM32.4999 69.788C32.3159 69.788 32.1679 69.732 32.0559 69.62C31.9519 69.508 31.8999 69.336 31.8999 69.104C31.8999 68.864 31.9519 68.692 32.0559 68.588C32.1679 68.476 32.3159 68.42 32.4999 68.42H32.6799C32.8639 68.42 33.0119 68.476 33.1239 68.588C33.2359 68.692 33.2919 68.864 33.2919 69.104C33.2919 69.336 33.2359 69.508 33.1239 69.62C33.0119 69.732 32.8639 69.788 32.6799 69.788H32.4999ZM30.8079 69.788C30.6239 69.788 30.4759 69.732 30.3639 69.62C30.2599 69.508 30.2079 69.336 30.2079 69.104C30.2079 68.864 30.2599 68.692 30.3639 68.588C30.4759 68.476 30.6239 68.42 30.8079 68.42H30.9879C31.1719 68.42 31.3199 68.476 31.4319 68.588C31.5439 68.692 31.5999 68.864 31.5999 69.104C31.5999 69.336 31.5439 69.508 31.4319 69.62C31.3199 69.732 31.1719 69.788 30.9879 69.788H30.8079ZM34.1202 75.932L34.4082 75.644H34.8042C35.4682 75.644 35.8002 75.328 35.8002 74.696V72.872H36.8442V74.696C36.8442 75.328 37.1562 75.644 37.7802 75.644H38.2362V76.712L37.9362 77C37.3442 77 36.8842 76.892 36.5562 76.676C36.2362 76.452 36.0242 76.104 35.9202 75.632H35.8482C35.7522 76.128 35.5722 76.48 35.3082 76.688C35.0522 76.896 34.6562 77 34.1202 77V75.932ZM37.0722 79.484C36.8882 79.484 36.7402 79.428 36.6282 79.316C36.5242 79.204 36.4722 79.032 36.4722 78.8C36.4722 78.56 36.5242 78.384 36.6282 78.272C36.7402 78.168 36.8882 78.116 37.0722 78.116H37.2522C37.4362 78.116 37.5842 78.168 37.6962 78.272C37.8082 78.384 37.8642 78.56 37.8642 78.8C37.8642 79.032 37.8082 79.204 37.6962 79.316C37.5842 79.428 37.4362 79.484 37.2522 79.484H37.0722ZM35.3802 79.484C35.1962 79.484 35.0482 79.428 34.9362 79.316C34.8322 79.204 34.7802 79.032 34.7802 78.8C34.7802 78.56 34.8322 78.384 34.9362 78.272C35.0482 78.168 35.1962 78.116 35.3802 78.116H35.5602C35.7442 78.116 35.8922 78.168 36.0042 78.272C36.1162 78.384 36.1722 78.56 36.1722 78.8C36.1722 79.032 36.1162 79.204 36.0042 79.316C35.8922 79.428 35.7442 79.484 35.5602 79.484H35.3802ZM37.9522 75.932L38.2402 75.644H38.4922C39.0362 75.644 39.4202 75.584 39.6442 75.464C39.8682 75.336 39.9802 75.108 39.9802 74.78C39.9802 74.644 39.9682 74.472 39.9442 74.264C39.9282 74.056 39.8922 73.78 39.8362 73.436L39.6442 72.392L40.6882 72.224L40.8442 73.268C40.9402 73.908 40.9882 74.412 40.9882 74.78C40.9882 75.532 40.7842 76.092 40.3762 76.46C39.9682 76.82 39.3402 77 38.4922 77H37.9522V75.932ZM39.9202 71C39.7362 71 39.5882 70.944 39.4762 70.832C39.3722 70.72 39.3202 70.548 39.3202 70.316C39.3202 70.076 39.3722 69.904 39.4762 69.8C39.5882 69.688 39.7362 69.632 39.9202 69.632H40.1002C40.2842 69.632 40.4322 69.688 40.5442 69.8C40.6562 69.904 40.7122 70.076 40.7122 70.316C40.7122 70.548 40.6562 70.72 40.5442 70.832C40.4322 70.944 40.2842 71 40.1002 71H39.9202ZM41.8352 78.524H42.6392C43.6392 78.524 44.3752 78.324 44.8472 77.924C45.3272 77.524 45.5672 76.984 45.5672 76.304V76.016H45.5072C45.2592 76.68 44.7472 77.012 43.9712 77.012C43.3232 77.012 42.8232 76.836 42.4712 76.484C42.1192 76.124 41.9432 75.62 41.9432 74.972C41.9432 74.588 41.9992 74.228 42.1112 73.892C42.2312 73.556 42.3912 73.268 42.5912 73.028C42.7992 72.78 43.0432 72.584 43.3232 72.44C43.6032 72.296 43.9072 72.224 44.2352 72.224C44.9632 72.224 45.5312 72.532 45.9392 73.148C46.3552 73.756 46.5632 74.608 46.5632 75.704C46.5632 77.016 46.2352 78.04 45.5792 78.776C44.9312 79.512 43.9672 79.88 42.6872 79.88H41.8352V78.524ZM44.2712 75.644C44.6072 75.644 44.8752 75.62 45.0752 75.572C45.2832 75.524 45.4472 75.448 45.5672 75.344C45.5512 74.816 45.4112 74.392 45.1472 74.072C44.8912 73.752 44.5512 73.592 44.1272 73.592C43.7592 73.592 43.4672 73.704 43.2512 73.928C43.0352 74.152 42.9272 74.444 42.9272 74.804C42.9272 75.1 43.0192 75.316 43.2032 75.452C43.3952 75.58 43.6712 75.644 44.0312 75.644H44.2712ZM46.532 78.524H46.988C47.396 78.524 47.736 78.472 48.008 78.368C48.28 78.264 48.5 78.116 48.668 77.924C48.836 77.74 48.956 77.516 49.028 77.252C49.1 76.988 49.136 76.692 49.136 76.364C49.136 76.148 49.124 75.924 49.1 75.692C49.076 75.46 49.044 75.228 49.004 74.996L48.752 73.544L49.784 73.352L49.928 74.228L51.98 73.892V72.872H53.024V74.78C53.024 75.116 53.1 75.344 53.252 75.464C53.412 75.584 53.672 75.644 54.032 75.644H54.428V76.712L54.128 77H54.068C53.372 77 52.86 76.864 52.532 76.592C52.212 76.312 52.032 75.852 51.992 75.212L50.108 75.524C50.124 75.676 50.136 75.82 50.144 75.956C50.152 76.092 50.156 76.224 50.156 76.352C50.156 76.848 50.096 77.308 49.976 77.732C49.864 78.164 49.68 78.54 49.424 78.86C49.168 79.18 48.84 79.428 48.44 79.604C48.04 79.788 47.56 79.88 47 79.88H46.532V78.524ZM53.228 71.648C53.044 71.648 52.896 71.592 52.784 71.48C52.68 71.368 52.628 71.196 52.628 70.964C52.628 70.724 52.68 70.552 52.784 70.448C52.896 70.336 53.044 70.28 53.228 70.28H53.408C53.592 70.28 53.74 70.336 53.852 70.448C53.964 70.552 54.02 70.724 54.02 70.964C54.02 71.196 53.964 71.368 53.852 71.48C53.74 71.592 53.592 71.648 53.408 71.648H53.228ZM51.536 71.648C51.352 71.648 51.204 71.592 51.092 71.48C50.988 71.368 50.936 71.196 50.936 70.964C50.936 70.724 50.988 70.552 51.092 70.448C51.204 70.336 51.352 70.28 51.536 70.28H51.716C51.9 70.28 52.048 70.336 52.16 70.448C52.272 70.552 52.328 70.724 52.328 70.964C52.328 71.196 52.272 71.368 52.16 71.48C52.048 71.592 51.9 71.648 51.716 71.648H51.536ZM54.1358 75.932L54.4238 75.644H55.5398C55.8998 75.644 56.1478 75.608 56.2838 75.536C56.4198 75.456 56.4878 75.324 56.4878 75.14C56.4878 75.02 56.4518 74.9 56.3798 74.78C56.3078 74.66 56.1718 74.484 55.9718 74.252L54.5438 72.68V70.136L59.9678 67.988V69.284L55.0358 71.24V71.312L57.8678 74.396C58.0998 74.652 58.3078 74.86 58.4918 75.02C58.6758 75.18 58.8518 75.308 59.0198 75.404C59.1878 75.492 59.3558 75.556 59.5238 75.596C59.6918 75.628 59.8798 75.644 60.0878 75.644V76.712L59.7998 77C59.5198 77 59.2718 76.98 59.0558 76.94C58.8398 76.892 58.6358 76.808 58.4438 76.688C58.2518 76.568 58.0558 76.408 57.8558 76.208C57.6558 76 57.4358 75.736 57.1958 75.416L56.9438 75.08L56.8838 75.104C56.9078 75.24 56.9198 75.368 56.9198 75.488C56.9198 75.936 56.7838 76.3 56.5118 76.58C56.2478 76.86 55.8878 77 55.4318 77H54.1358V75.932ZM59.796 75.932L60.084 75.644H60.504C60.856 75.644 61.1 75.568 61.236 75.416C61.38 75.264 61.452 75.024 61.452 74.696V68.12H62.58V74.696C62.58 75.488 62.42 76.072 62.1 76.448C61.78 76.816 61.248 77 60.504 77H59.796V75.932ZM64.0721 75.668L66.2561 73.616L63.2921 70.496L64.1081 69.68L67.0961 72.824C67.2241 72.704 67.3281 72.588 67.4081 72.476C67.4961 72.356 67.5641 72.236 67.6121 72.116C67.6681 71.988 67.7041 71.848 67.7201 71.696C67.7441 71.544 67.7561 71.368 67.7561 71.168V68.12H68.8841V71.168C68.8841 71.432 68.8641 71.664 68.8241 71.864C68.7921 72.064 68.7321 72.256 68.6441 72.44C68.5561 72.616 68.4401 72.792 68.2961 72.968C68.1601 73.136 67.9841 73.32 67.7681 73.52L68.3681 74.156C68.6721 74.468 68.8801 74.74 68.9921 74.972C69.1121 75.196 69.1721 75.436 69.1721 75.692C69.1721 75.868 69.1401 76.036 69.0761 76.196C69.0121 76.356 68.9201 76.496 68.8001 76.616C68.6881 76.736 68.5481 76.832 68.3801 76.904C68.2121 76.968 68.0201 77 67.8041 77H64.0721V75.668ZM66.9041 74.3L65.4641 75.596L65.4761 75.644H68.2001L66.9041 74.3ZM64.1681 79.316H64.6361L64.6481 79.256C64.4961 79.088 64.4201 78.88 64.4201 78.632C64.4201 78.312 64.5321 78.044 64.7561 77.828C64.9801 77.62 65.2641 77.516 65.6081 77.516C65.8161 77.516 66.0201 77.56 66.2201 77.648C66.4201 77.744 66.5841 77.872 66.7121 78.032L66.2081 78.68C66.0241 78.496 65.8241 78.404 65.6081 78.404C65.4641 78.404 65.3481 78.436 65.2601 78.5C65.1721 78.572 65.1281 78.66 65.1281 78.764C65.1281 79.084 65.4081 79.244 65.9681 79.244H66.7961V80.144H64.1681V79.316ZM70.4979 68.12H71.6139V77H70.4979V68.12ZM80.3712 77.144C79.5152 77.144 78.7952 77.096 78.2112 77C77.6272 76.912 77.1552 76.768 76.7952 76.568C76.4352 76.36 76.1752 76.092 76.0152 75.764C75.8632 75.428 75.7872 75.02 75.7872 74.54C75.7872 73.9 75.9512 73.184 76.2792 72.392L77.2032 72.668C77.0512 72.988 76.9352 73.284 76.8552 73.556C76.7752 73.82 76.7352 74.068 76.7352 74.3C76.7352 74.772 76.9552 75.116 77.3952 75.332C77.8432 75.54 78.5712 75.644 79.5792 75.644H81.2592C81.8112 75.644 82.2672 75.632 82.6272 75.608C82.9952 75.576 83.2872 75.524 83.5032 75.452C83.7192 75.38 83.8712 75.284 83.9592 75.164C84.0552 75.044 84.1032 74.892 84.1032 74.708C84.1032 74.58 84.0952 74.42 84.0792 74.228C84.0632 74.028 84.0232 73.764 83.9592 73.436L83.7672 72.392L84.8112 72.224L84.9792 73.268C85.0192 73.572 85.0512 73.848 85.0752 74.096C85.0992 74.336 85.1112 74.54 85.1112 74.708C85.1112 75.18 85.0352 75.572 84.8832 75.884C84.7312 76.196 84.4712 76.444 84.1032 76.628C83.7432 76.812 83.2592 76.944 82.6512 77.024C82.0432 77.104 81.2832 77.144 80.3712 77.144ZM81.1392 72.608C80.9552 72.608 80.8072 72.552 80.6952 72.44C80.5912 72.328 80.5392 72.156 80.5392 71.924C80.5392 71.684 80.5912 71.512 80.6952 71.408C80.8072 71.296 80.9552 71.24 81.1392 71.24H81.3192C81.5032 71.24 81.6512 71.296 81.7632 71.408C81.8752 71.512 81.9312 71.684 81.9312 71.924C81.9312 72.156 81.8752 72.328 81.7632 72.44C81.6512 72.552 81.5032 72.608 81.3192 72.608H81.1392ZM79.4472 72.608C79.2632 72.608 79.1152 72.552 79.0032 72.44C78.8992 72.328 78.8472 72.156 78.8472 71.924C78.8472 71.684 78.8992 71.512 79.0032 71.408C79.1152 71.296 79.2632 71.24 79.4472 71.24H79.6272C79.8112 71.24 79.9592 71.296 80.0712 71.408C80.1832 71.512 80.2392 71.684 80.2392 71.924C80.2392 72.156 80.1832 72.328 80.0712 72.44C79.9592 72.552 79.8112 72.608 79.6272 72.608H79.4472ZM88.62 77C87.836 77 87.272 76.84 86.928 76.52C86.584 76.192 86.412 75.648 86.412 74.888V68.12H87.528V74.78C87.528 75.116 87.604 75.344 87.756 75.464C87.916 75.584 88.176 75.644 88.536 75.644H88.932V76.712L88.632 77H88.62ZM90.2915 76.316C90.1075 76.564 89.8875 76.74 89.6315 76.844C89.3755 76.948 89.0475 77 88.6475 77V75.932L88.9355 75.644C89.2395 75.644 89.4595 75.58 89.5955 75.452C89.7395 75.316 89.8715 75.088 89.9915 74.768L90.3275 73.904C90.5195 73.408 90.7715 73.012 91.0835 72.716C91.4035 72.412 91.8315 72.26 92.3675 72.26C93.0235 72.26 93.5275 72.54 93.8795 73.1C94.2315 73.652 94.4075 74.428 94.4075 75.428V75.896L93.5075 77.216L90.2915 76.316ZM90.8555 75.056L93.3755 75.764V75.428C93.3755 74.86 93.2675 74.416 93.0515 74.096C92.8355 73.776 92.5355 73.616 92.1515 73.616C91.8715 73.616 91.6435 73.7 91.4675 73.868C91.2995 74.028 91.1595 74.252 91.0475 74.54L90.8555 75.056ZM96.5567 77C96.1487 77 95.8287 76.892 95.5967 76.676C95.3647 76.46 95.2487 76.124 95.2487 75.668V74.792H96.3167V75.644H97.9487C98.3727 75.644 98.6647 75.608 98.8247 75.536C98.9847 75.464 99.0647 75.328 99.0647 75.128C99.0647 75.04 99.0447 74.932 99.0047 74.804C98.9647 74.668 98.9087 74.496 98.8367 74.288L97.7207 71.18L98.8607 70.772L100.085 74.168C100.189 74.464 100.285 74.708 100.373 74.9C100.469 75.084 100.565 75.232 100.661 75.344C100.757 75.456 100.857 75.536 100.961 75.584C101.073 75.624 101.201 75.644 101.345 75.644H101.669V76.712L101.369 77C101.105 77 100.873 76.98 100.673 76.94C100.473 76.892 100.293 76.82 100.133 76.724C99.9807 76.62 99.8407 76.484 99.7127 76.316C99.5927 76.148 99.4727 75.936 99.3527 75.68L99.2927 75.692C99.2207 76.164 99.0607 76.5 98.8127 76.7C98.5647 76.9 98.1847 77 97.6727 77H96.5567ZM101.386 75.932L101.674 75.644H102.262C102.654 75.644 103.014 75.636 103.342 75.62C103.67 75.604 103.99 75.568 104.302 75.512C104.614 75.448 104.934 75.36 105.262 75.248C105.59 75.128 105.954 74.972 106.354 74.78L107.182 74.384V74.324L105.334 73.928L103.138 73.388V74.36H102.07V73.436C102.07 73.004 102.174 72.684 102.382 72.476C102.598 72.26 102.898 72.152 103.282 72.152C103.386 72.152 103.506 72.164 103.642 72.188C103.786 72.212 104.014 72.264 104.326 72.344L106.99 73.028C107.758 73.228 108.418 73.328 108.97 73.328H109.186V74.684H108.31V74.744C108.31 75.08 108.386 75.316 108.538 75.452C108.69 75.58 108.938 75.644 109.282 75.644H109.678V76.712L109.39 77C108.726 77 108.234 76.864 107.914 76.592C107.602 76.312 107.426 75.86 107.386 75.236L106.774 75.62C106.262 75.94 105.806 76.192 105.406 76.376C105.014 76.56 104.646 76.7 104.302 76.796C103.958 76.884 103.622 76.94 103.294 76.964C102.974 76.988 102.63 77 102.262 77H101.386V75.932ZM104.734 70.964C104.55 70.964 104.402 70.908 104.29 70.796C104.186 70.684 104.134 70.512 104.134 70.28C104.134 70.04 104.186 69.868 104.29 69.764C104.402 69.652 104.55 69.596 104.734 69.596H104.914C105.098 69.596 105.246 69.652 105.358 69.764C105.47 69.868 105.526 70.04 105.526 70.28C105.526 70.512 105.47 70.684 105.358 70.796C105.246 70.908 105.098 70.964 104.914 70.964H104.734ZM109.39 75.932L109.678 75.644H110.05C110.714 75.644 111.046 75.328 111.046 74.696V68.12H112.162V74.696C112.162 75.328 112.478 75.644 113.11 75.644H113.53V76.712L113.242 77C112.642 77 112.17 76.892 111.826 76.676C111.49 76.452 111.27 76.104 111.166 75.632H111.094C110.998 76.128 110.822 76.48 110.566 76.688C110.31 76.896 109.918 77 109.39 77V75.932ZM113.245 75.932L113.533 75.644H113.953C114.305 75.644 114.549 75.568 114.685 75.416C114.829 75.264 114.901 75.024 114.901 74.696V68.12H116.029V74.696C116.029 75.488 115.869 76.072 115.549 76.448C115.229 76.816 114.697 77 113.953 77H113.245V75.932Z" fill="white"/>

</g>
<defs>
<clipPath id="clip0_474_13070">
<rect width="150" height="95" fill="white"/>
</clipPath>
</defs>
</svg>
